<mxfile host="app.diagrams.net" modified="2024-01-06T03:03:13.398Z" agent="Mozilla/5.0 (Windows NT 10.0; Win64; x64) AppleWebKit/537.36 (KHTML, like Gecko) Chrome/120.0.0.0 Safari/537.36" etag="-BKiQgcS-bx0Z9DXw0sc" version="22.1.16" type="device">
  <diagram id="C5RBs43oDa-KdzZeNtuy" name="Page-1">
    <mxGraphModel dx="1122" dy="620" grid="1" gridSize="10" guides="1" tooltips="1" connect="1" arrows="1" fold="1" page="1" pageScale="1" pageWidth="827" pageHeight="1169" math="0" shadow="0">
      <root>
        <mxCell id="WIyWlLk6GJQsqaUBKTNV-0" />
        <mxCell id="WIyWlLk6GJQsqaUBKTNV-1" parent="WIyWlLk6GJQsqaUBKTNV-0" />
        <mxCell id="6CoXRJJS-WZdz4uYCl7o-0" value="Taxi Trip booking system" style="shape=umlFrame;whiteSpace=wrap;html=1;pointerEvents=0;width=170;height=20;rounded=0;" parent="WIyWlLk6GJQsqaUBKTNV-1" vertex="1">
          <mxGeometry x="150" y="50" width="500" height="1490" as="geometry" />
        </mxCell>
        <mxCell id="6CoXRJJS-WZdz4uYCl7o-10" style="rounded=0;orthogonalLoop=1;jettySize=auto;html=1;endArrow=none;endFill=0;jumpStyle=none;strokeColor=default;" parent="WIyWlLk6GJQsqaUBKTNV-1" source="6CoXRJJS-WZdz4uYCl7o-1" target="6CoXRJJS-WZdz4uYCl7o-3" edge="1">
          <mxGeometry relative="1" as="geometry">
            <mxPoint x="90" y="230" as="sourcePoint" />
          </mxGeometry>
        </mxCell>
        <mxCell id="6CoXRJJS-WZdz4uYCl7o-1" value="User&lt;br&gt;" style="shape=umlActor;verticalLabelPosition=bottom;verticalAlign=top;html=1;rounded=0;" parent="WIyWlLk6GJQsqaUBKTNV-1" vertex="1">
          <mxGeometry x="40" y="210" width="30" height="60" as="geometry" />
        </mxCell>
        <mxCell id="6CoXRJJS-WZdz4uYCl7o-3" value="Login" style="ellipse;whiteSpace=wrap;html=1;rounded=0;" parent="WIyWlLk6GJQsqaUBKTNV-1" vertex="1">
          <mxGeometry x="290" y="220" width="80" height="40" as="geometry" />
        </mxCell>
        <mxCell id="6CoXRJJS-WZdz4uYCl7o-23" value="List Trips" style="ellipse;whiteSpace=wrap;html=1;rounded=0;" parent="WIyWlLk6GJQsqaUBKTNV-1" vertex="1">
          <mxGeometry x="324" y="460" width="90" height="50" as="geometry" />
        </mxCell>
        <mxCell id="6CoXRJJS-WZdz4uYCl7o-24" value="Register" style="ellipse;whiteSpace=wrap;html=1;rounded=0;" parent="WIyWlLk6GJQsqaUBKTNV-1" vertex="1">
          <mxGeometry x="290" y="290" width="80" height="40" as="geometry" />
        </mxCell>
        <mxCell id="6CoXRJJS-WZdz4uYCl7o-27" style="rounded=0;orthogonalLoop=1;jettySize=auto;html=1;endArrow=none;endFill=0;jumpStyle=arc;strokeColor=default;entryX=0;entryY=0.5;entryDx=0;entryDy=0;" parent="WIyWlLk6GJQsqaUBKTNV-1" source="6CoXRJJS-WZdz4uYCl7o-1" target="6CoXRJJS-WZdz4uYCl7o-24" edge="1">
          <mxGeometry relative="1" as="geometry">
            <mxPoint x="90" y="230" as="sourcePoint" />
            <mxPoint x="295" y="291" as="targetPoint" />
          </mxGeometry>
        </mxCell>
        <mxCell id="6CoXRJJS-WZdz4uYCl7o-33" value="View all trip transactions" style="ellipse;whiteSpace=wrap;html=1;rounded=0;" parent="WIyWlLk6GJQsqaUBKTNV-1" vertex="1">
          <mxGeometry x="460" y="710" width="90" height="50" as="geometry" />
        </mxCell>
        <mxCell id="6CoXRJJS-WZdz4uYCl7o-35" value="Admin" style="shape=umlActor;verticalLabelPosition=bottom;verticalAlign=top;html=1;rounded=0;" parent="WIyWlLk6GJQsqaUBKTNV-1" vertex="1">
          <mxGeometry x="710" y="215" width="30" height="60" as="geometry" />
        </mxCell>
        <mxCell id="6CoXRJJS-WZdz4uYCl7o-36" style="rounded=0;orthogonalLoop=1;jettySize=auto;html=1;endArrow=none;endFill=0;jumpStyle=arc;strokeColor=default;exitX=1;exitY=0;exitDx=0;exitDy=0;" parent="WIyWlLk6GJQsqaUBKTNV-1" source="6CoXRJJS-WZdz4uYCl7o-33" target="6CoXRJJS-WZdz4uYCl7o-74" edge="1">
          <mxGeometry relative="1" as="geometry">
            <mxPoint x="414" y="230" as="sourcePoint" />
            <mxPoint x="622" y="381" as="targetPoint" />
          </mxGeometry>
        </mxCell>
        <mxCell id="6CoXRJJS-WZdz4uYCl7o-37" value="View all users" style="ellipse;whiteSpace=wrap;html=1;rounded=0;" parent="WIyWlLk6GJQsqaUBKTNV-1" vertex="1">
          <mxGeometry x="450" y="220" width="90" height="50" as="geometry" />
        </mxCell>
        <mxCell id="6CoXRJJS-WZdz4uYCl7o-38" style="rounded=0;orthogonalLoop=1;jettySize=auto;html=1;endArrow=none;endFill=0;jumpStyle=arc;strokeColor=default;exitX=1;exitY=0.5;exitDx=0;exitDy=0;" parent="WIyWlLk6GJQsqaUBKTNV-1" source="6CoXRJJS-WZdz4uYCl7o-37" target="6CoXRJJS-WZdz4uYCl7o-35" edge="1">
          <mxGeometry relative="1" as="geometry">
            <mxPoint x="550" y="430" as="sourcePoint" />
            <mxPoint x="710" y="320" as="targetPoint" />
          </mxGeometry>
        </mxCell>
        <mxCell id="6CoXRJJS-WZdz4uYCl7o-39" value="Cancel trip" style="ellipse;whiteSpace=wrap;html=1;rounded=0;" parent="WIyWlLk6GJQsqaUBKTNV-1" vertex="1">
          <mxGeometry x="324" y="535" width="90" height="50" as="geometry" />
        </mxCell>
        <mxCell id="6CoXRJJS-WZdz4uYCl7o-40" value="Create trip" style="ellipse;whiteSpace=wrap;html=1;rounded=0;" parent="WIyWlLk6GJQsqaUBKTNV-1" vertex="1">
          <mxGeometry x="324" y="610" width="90" height="50" as="geometry" />
        </mxCell>
        <mxCell id="6CoXRJJS-WZdz4uYCl7o-42" value="" style="rounded=0;orthogonalLoop=1;jettySize=auto;html=1;endArrow=none;endFill=0;jumpStyle=arc;strokeColor=default;entryX=0;entryY=0.5;entryDx=0;entryDy=0;" parent="WIyWlLk6GJQsqaUBKTNV-1" source="6CoXRJJS-WZdz4uYCl7o-48" target="6CoXRJJS-WZdz4uYCl7o-23" edge="1">
          <mxGeometry relative="1" as="geometry">
            <mxPoint x="50" y="380" as="sourcePoint" />
            <mxPoint x="233" y="447" as="targetPoint" />
          </mxGeometry>
        </mxCell>
        <mxCell id="6CoXRJJS-WZdz4uYCl7o-41" value="Trip" style="shape=umlFrame;whiteSpace=wrap;html=1;pointerEvents=0;rounded=0;" parent="WIyWlLk6GJQsqaUBKTNV-1" vertex="1">
          <mxGeometry x="220" y="420" width="360" height="350" as="geometry" />
        </mxCell>
        <mxCell id="6CoXRJJS-WZdz4uYCl7o-44" style="edgeStyle=orthogonalEdgeStyle;orthogonalLoop=1;jettySize=auto;html=1;exitX=0.5;exitY=1;exitDx=0;exitDy=0;" parent="WIyWlLk6GJQsqaUBKTNV-1" source="6CoXRJJS-WZdz4uYCl7o-40" target="6CoXRJJS-WZdz4uYCl7o-40" edge="1">
          <mxGeometry relative="1" as="geometry" />
        </mxCell>
        <mxCell id="6CoXRJJS-WZdz4uYCl7o-45" value="" style="rounded=0;orthogonalLoop=1;jettySize=auto;html=1;endArrow=none;endFill=0;jumpStyle=arc;strokeColor=default;entryX=0;entryY=0.5;entryDx=0;entryDy=0;" parent="WIyWlLk6GJQsqaUBKTNV-1" source="6CoXRJJS-WZdz4uYCl7o-47" target="6CoXRJJS-WZdz4uYCl7o-39" edge="1">
          <mxGeometry relative="1" as="geometry">
            <mxPoint x="80" y="490" as="sourcePoint" />
            <mxPoint x="303" y="477" as="targetPoint" />
          </mxGeometry>
        </mxCell>
        <mxCell id="6CoXRJJS-WZdz4uYCl7o-46" value="" style="rounded=0;orthogonalLoop=1;jettySize=auto;html=1;endArrow=none;endFill=0;jumpStyle=arc;strokeColor=default;entryX=0;entryY=0.5;entryDx=0;entryDy=0;" parent="WIyWlLk6GJQsqaUBKTNV-1" source="6CoXRJJS-WZdz4uYCl7o-48" target="6CoXRJJS-WZdz4uYCl7o-40" edge="1">
          <mxGeometry relative="1" as="geometry">
            <mxPoint x="50" y="410" as="sourcePoint" />
            <mxPoint x="290" y="575" as="targetPoint" />
          </mxGeometry>
        </mxCell>
        <mxCell id="6CoXRJJS-WZdz4uYCl7o-47" value="Customer" style="shape=umlActor;verticalLabelPosition=bottom;verticalAlign=top;html=1;rounded=0;" parent="WIyWlLk6GJQsqaUBKTNV-1" vertex="1">
          <mxGeometry x="40" y="455" width="30" height="60" as="geometry" />
        </mxCell>
        <mxCell id="6CoXRJJS-WZdz4uYCl7o-48" value="Driver" style="shape=umlActor;verticalLabelPosition=bottom;verticalAlign=top;html=1;rounded=0;" parent="WIyWlLk6GJQsqaUBKTNV-1" vertex="1">
          <mxGeometry x="40" y="610" width="30" height="60" as="geometry" />
        </mxCell>
        <mxCell id="6CoXRJJS-WZdz4uYCl7o-51" value="" style="rounded=0;orthogonalLoop=1;jettySize=auto;html=1;endArrow=none;endFill=0;jumpStyle=arc;strokeColor=default;entryX=0;entryY=0.5;entryDx=0;entryDy=0;" parent="WIyWlLk6GJQsqaUBKTNV-1" source="6CoXRJJS-WZdz4uYCl7o-48" target="6CoXRJJS-WZdz4uYCl7o-39" edge="1">
          <mxGeometry relative="1" as="geometry">
            <mxPoint x="80" y="626" as="sourcePoint" />
            <mxPoint x="347" y="637" as="targetPoint" />
          </mxGeometry>
        </mxCell>
        <mxCell id="6CoXRJJS-WZdz4uYCl7o-52" value="" style="rounded=0;orthogonalLoop=1;jettySize=auto;html=1;endArrow=none;endFill=0;jumpStyle=arc;strokeColor=default;entryX=0;entryY=0.5;entryDx=0;entryDy=0;" parent="WIyWlLk6GJQsqaUBKTNV-1" source="6CoXRJJS-WZdz4uYCl7o-47" target="6CoXRJJS-WZdz4uYCl7o-23" edge="1">
          <mxGeometry relative="1" as="geometry">
            <mxPoint x="80" y="489" as="sourcePoint" />
            <mxPoint x="320" y="490" as="targetPoint" />
          </mxGeometry>
        </mxCell>
        <mxCell id="6CoXRJJS-WZdz4uYCl7o-56" value="Auth" style="shape=umlFrame;whiteSpace=wrap;html=1;pointerEvents=0;rounded=0;" parent="WIyWlLk6GJQsqaUBKTNV-1" vertex="1">
          <mxGeometry x="220" y="100" width="360" height="300" as="geometry" />
        </mxCell>
        <mxCell id="6CoXRJJS-WZdz4uYCl7o-57" value="Delete users" style="ellipse;whiteSpace=wrap;html=1;rounded=0;" parent="WIyWlLk6GJQsqaUBKTNV-1" vertex="1">
          <mxGeometry x="450" y="290" width="90" height="50" as="geometry" />
        </mxCell>
        <mxCell id="6CoXRJJS-WZdz4uYCl7o-58" style="rounded=0;orthogonalLoop=1;jettySize=auto;html=1;endArrow=none;endFill=0;jumpStyle=arc;strokeColor=default;exitX=1;exitY=0.5;exitDx=0;exitDy=0;" parent="WIyWlLk6GJQsqaUBKTNV-1" source="6CoXRJJS-WZdz4uYCl7o-57" target="6CoXRJJS-WZdz4uYCl7o-35" edge="1">
          <mxGeometry relative="1" as="geometry">
            <mxPoint x="550" y="255" as="sourcePoint" />
            <mxPoint x="750" y="250" as="targetPoint" />
          </mxGeometry>
        </mxCell>
        <mxCell id="6CoXRJJS-WZdz4uYCl7o-59" value="Lost Items" style="shape=umlFrame;whiteSpace=wrap;html=1;pointerEvents=0;rounded=0;width=80;height=30;" parent="WIyWlLk6GJQsqaUBKTNV-1" vertex="1">
          <mxGeometry x="220" y="790" width="360" height="300" as="geometry" />
        </mxCell>
        <mxCell id="6CoXRJJS-WZdz4uYCl7o-61" value="User" style="shape=umlActor;verticalLabelPosition=bottom;verticalAlign=top;html=1;rounded=0;" parent="WIyWlLk6GJQsqaUBKTNV-1" vertex="1">
          <mxGeometry x="50" y="910" width="30" height="60" as="geometry" />
        </mxCell>
        <mxCell id="6CoXRJJS-WZdz4uYCl7o-62" value="Create lost item" style="ellipse;whiteSpace=wrap;html=1;rounded=0;" parent="WIyWlLk6GJQsqaUBKTNV-1" vertex="1">
          <mxGeometry x="304" y="810" width="130" height="50" as="geometry" />
        </mxCell>
        <mxCell id="6CoXRJJS-WZdz4uYCl7o-63" value="Remove lost item" style="ellipse;whiteSpace=wrap;html=1;rounded=0;" parent="WIyWlLk6GJQsqaUBKTNV-1" vertex="1">
          <mxGeometry x="304" y="950" width="130" height="50" as="geometry" />
        </mxCell>
        <mxCell id="6CoXRJJS-WZdz4uYCl7o-64" value="View lost item" style="ellipse;whiteSpace=wrap;html=1;rounded=0;" parent="WIyWlLk6GJQsqaUBKTNV-1" vertex="1">
          <mxGeometry x="304" y="1010" width="130" height="50" as="geometry" />
        </mxCell>
        <mxCell id="6CoXRJJS-WZdz4uYCl7o-65" value="" style="rounded=0;orthogonalLoop=1;jettySize=auto;html=1;endArrow=none;endFill=0;jumpStyle=arc;strokeColor=default;entryX=0;entryY=0.5;entryDx=0;entryDy=0;" parent="WIyWlLk6GJQsqaUBKTNV-1" source="6CoXRJJS-WZdz4uYCl7o-61" target="6CoXRJJS-WZdz4uYCl7o-62" edge="1">
          <mxGeometry relative="1" as="geometry">
            <mxPoint x="70" y="827" as="sourcePoint" />
            <mxPoint x="324" y="780" as="targetPoint" />
          </mxGeometry>
        </mxCell>
        <mxCell id="6CoXRJJS-WZdz4uYCl7o-67" value="" style="rounded=0;orthogonalLoop=1;jettySize=auto;html=1;endArrow=none;endFill=0;jumpStyle=arc;strokeColor=default;entryX=0;entryY=0.5;entryDx=0;entryDy=0;" parent="WIyWlLk6GJQsqaUBKTNV-1" source="6CoXRJJS-WZdz4uYCl7o-61" target="6CoXRJJS-WZdz4uYCl7o-63" edge="1">
          <mxGeometry relative="1" as="geometry">
            <mxPoint x="80" y="832" as="sourcePoint" />
            <mxPoint x="314" y="828" as="targetPoint" />
          </mxGeometry>
        </mxCell>
        <mxCell id="6CoXRJJS-WZdz4uYCl7o-71" value="" style="rounded=0;orthogonalLoop=1;jettySize=auto;html=1;endArrow=none;endFill=0;jumpStyle=arc;strokeColor=default;entryX=0;entryY=0.5;entryDx=0;entryDy=0;" parent="WIyWlLk6GJQsqaUBKTNV-1" target="6CoXRJJS-WZdz4uYCl7o-64" edge="1" source="6CoXRJJS-WZdz4uYCl7o-61">
          <mxGeometry relative="1" as="geometry">
            <mxPoint x="80" y="890" as="sourcePoint" />
            <mxPoint x="314" y="900" as="targetPoint" />
          </mxGeometry>
        </mxCell>
        <mxCell id="6CoXRJJS-WZdz4uYCl7o-73" value="View all lost items" style="ellipse;whiteSpace=wrap;html=1;rounded=0;" parent="WIyWlLk6GJQsqaUBKTNV-1" vertex="1">
          <mxGeometry x="470" y="910" width="90" height="50" as="geometry" />
        </mxCell>
        <mxCell id="6CoXRJJS-WZdz4uYCl7o-74" value="Admin" style="shape=umlActor;verticalLabelPosition=bottom;verticalAlign=top;html=1;rounded=0;" parent="WIyWlLk6GJQsqaUBKTNV-1" vertex="1">
          <mxGeometry x="700" y="510" width="30" height="60" as="geometry" />
        </mxCell>
        <mxCell id="6CoXRJJS-WZdz4uYCl7o-75" value="Admin" style="shape=umlActor;verticalLabelPosition=bottom;verticalAlign=top;html=1;rounded=0;" parent="WIyWlLk6GJQsqaUBKTNV-1" vertex="1">
          <mxGeometry x="690" y="900" width="30" height="60" as="geometry" />
        </mxCell>
        <mxCell id="6CoXRJJS-WZdz4uYCl7o-76" style="rounded=0;orthogonalLoop=1;jettySize=auto;html=1;endArrow=none;endFill=0;jumpStyle=arc;strokeColor=default;exitX=1;exitY=0.5;exitDx=0;exitDy=0;" parent="WIyWlLk6GJQsqaUBKTNV-1" source="6CoXRJJS-WZdz4uYCl7o-73" target="6CoXRJJS-WZdz4uYCl7o-75" edge="1">
          <mxGeometry relative="1" as="geometry">
            <mxPoint x="567" y="867" as="sourcePoint" />
            <mxPoint x="740" y="865" as="targetPoint" />
          </mxGeometry>
        </mxCell>
        <mxCell id="6CoXRJJS-WZdz4uYCl7o-78" value="Complaints" style="shape=umlFrame;whiteSpace=wrap;html=1;pointerEvents=0;rounded=0;width=80;height=30;" parent="WIyWlLk6GJQsqaUBKTNV-1" vertex="1">
          <mxGeometry x="220" y="1120" width="360" height="370" as="geometry" />
        </mxCell>
        <mxCell id="6CoXRJJS-WZdz4uYCl7o-79" value="Create complaint" style="ellipse;whiteSpace=wrap;html=1;rounded=0;" parent="WIyWlLk6GJQsqaUBKTNV-1" vertex="1">
          <mxGeometry x="320" y="1160" width="130" height="50" as="geometry" />
        </mxCell>
        <mxCell id="6CoXRJJS-WZdz4uYCl7o-80" value="Delete complaint" style="ellipse;whiteSpace=wrap;html=1;rounded=0;" parent="WIyWlLk6GJQsqaUBKTNV-1" vertex="1">
          <mxGeometry x="320" y="1245" width="130" height="50" as="geometry" />
        </mxCell>
        <mxCell id="6CoXRJJS-WZdz4uYCl7o-81" value="View complaint" style="ellipse;whiteSpace=wrap;html=1;rounded=0;" parent="WIyWlLk6GJQsqaUBKTNV-1" vertex="1">
          <mxGeometry x="320" y="1330" width="130" height="50" as="geometry" />
        </mxCell>
        <mxCell id="6CoXRJJS-WZdz4uYCl7o-82" value="User" style="shape=umlActor;verticalLabelPosition=bottom;verticalAlign=top;html=1;rounded=0;" parent="WIyWlLk6GJQsqaUBKTNV-1" vertex="1">
          <mxGeometry x="60" y="1210" width="30" height="60" as="geometry" />
        </mxCell>
        <mxCell id="6CoXRJJS-WZdz4uYCl7o-84" value="" style="rounded=0;orthogonalLoop=1;jettySize=auto;html=1;endArrow=none;endFill=0;jumpStyle=arc;strokeColor=default;entryX=0;entryY=0.5;entryDx=0;entryDy=0;" parent="WIyWlLk6GJQsqaUBKTNV-1" source="6CoXRJJS-WZdz4uYCl7o-82" target="6CoXRJJS-WZdz4uYCl7o-81" edge="1">
          <mxGeometry relative="1" as="geometry">
            <mxPoint x="80" y="1410" as="sourcePoint" />
            <mxPoint x="320" y="1487" as="targetPoint" />
          </mxGeometry>
        </mxCell>
        <mxCell id="6CoXRJJS-WZdz4uYCl7o-85" value="" style="rounded=0;orthogonalLoop=1;jettySize=auto;html=1;endArrow=none;endFill=0;jumpStyle=arc;strokeColor=default;entryX=0;entryY=0.5;entryDx=0;entryDy=0;" parent="WIyWlLk6GJQsqaUBKTNV-1" source="6CoXRJJS-WZdz4uYCl7o-82" target="6CoXRJJS-WZdz4uYCl7o-80" edge="1">
          <mxGeometry relative="1" as="geometry">
            <mxPoint x="100" y="1207" as="sourcePoint" />
            <mxPoint x="330" y="1315" as="targetPoint" />
          </mxGeometry>
        </mxCell>
        <mxCell id="6CoXRJJS-WZdz4uYCl7o-86" value="" style="rounded=0;orthogonalLoop=1;jettySize=auto;html=1;endArrow=none;endFill=0;jumpStyle=arc;strokeColor=default;entryX=0;entryY=0.5;entryDx=0;entryDy=0;" parent="WIyWlLk6GJQsqaUBKTNV-1" source="6CoXRJJS-WZdz4uYCl7o-82" target="6CoXRJJS-WZdz4uYCl7o-79" edge="1">
          <mxGeometry relative="1" as="geometry">
            <mxPoint x="90" y="1190" as="sourcePoint" />
            <mxPoint x="330" y="1230" as="targetPoint" />
          </mxGeometry>
        </mxCell>
        <mxCell id="6CoXRJJS-WZdz4uYCl7o-87" value="Admin" style="shape=umlActor;verticalLabelPosition=bottom;verticalAlign=top;html=1;rounded=0;" parent="WIyWlLk6GJQsqaUBKTNV-1" vertex="1">
          <mxGeometry x="690" y="1250" width="30" height="60" as="geometry" />
        </mxCell>
        <mxCell id="6CoXRJJS-WZdz4uYCl7o-90" value="View all complaints" style="ellipse;whiteSpace=wrap;html=1;rounded=0;" parent="WIyWlLk6GJQsqaUBKTNV-1" vertex="1">
          <mxGeometry x="470" y="1240" width="90" height="50" as="geometry" />
        </mxCell>
        <mxCell id="6CoXRJJS-WZdz4uYCl7o-92" style="rounded=0;orthogonalLoop=1;jettySize=auto;html=1;endArrow=none;endFill=0;jumpStyle=arc;strokeColor=default;exitX=1;exitY=0.5;exitDx=0;exitDy=0;" parent="WIyWlLk6GJQsqaUBKTNV-1" source="6CoXRJJS-WZdz4uYCl7o-90" target="6CoXRJJS-WZdz4uYCl7o-87" edge="1">
          <mxGeometry relative="1" as="geometry">
            <mxPoint x="560" y="1437" as="sourcePoint" />
            <mxPoint x="690" y="1433" as="targetPoint" />
          </mxGeometry>
        </mxCell>
        <mxCell id="10pZMpCAyaWx1mK4e7Oo-0" value="Edit users" style="ellipse;whiteSpace=wrap;html=1;rounded=0;" vertex="1" parent="WIyWlLk6GJQsqaUBKTNV-1">
          <mxGeometry x="450" y="150" width="90" height="50" as="geometry" />
        </mxCell>
        <mxCell id="10pZMpCAyaWx1mK4e7Oo-1" style="rounded=0;orthogonalLoop=1;jettySize=auto;html=1;endArrow=none;endFill=0;jumpStyle=arc;strokeColor=default;exitX=1;exitY=0.5;exitDx=0;exitDy=0;" edge="1" parent="WIyWlLk6GJQsqaUBKTNV-1" source="10pZMpCAyaWx1mK4e7Oo-0" target="6CoXRJJS-WZdz4uYCl7o-35">
          <mxGeometry relative="1" as="geometry">
            <mxPoint x="550" y="255" as="sourcePoint" />
            <mxPoint x="720" y="255" as="targetPoint" />
          </mxGeometry>
        </mxCell>
        <mxCell id="10pZMpCAyaWx1mK4e7Oo-2" value="Edit Trip" style="ellipse;whiteSpace=wrap;html=1;rounded=0;" vertex="1" parent="WIyWlLk6GJQsqaUBKTNV-1">
          <mxGeometry x="324" y="690" width="90" height="50" as="geometry" />
        </mxCell>
        <mxCell id="10pZMpCAyaWx1mK4e7Oo-3" value="" style="rounded=0;orthogonalLoop=1;jettySize=auto;html=1;endArrow=none;endFill=0;jumpStyle=arc;strokeColor=default;entryX=0;entryY=0.5;entryDx=0;entryDy=0;" edge="1" parent="WIyWlLk6GJQsqaUBKTNV-1" source="6CoXRJJS-WZdz4uYCl7o-48" target="10pZMpCAyaWx1mK4e7Oo-2">
          <mxGeometry relative="1" as="geometry">
            <mxPoint x="80" y="650" as="sourcePoint" />
            <mxPoint x="334" y="645" as="targetPoint" />
          </mxGeometry>
        </mxCell>
        <mxCell id="10pZMpCAyaWx1mK4e7Oo-4" style="rounded=0;orthogonalLoop=1;jettySize=auto;html=1;endArrow=none;endFill=0;jumpStyle=arc;strokeColor=default;exitX=1;exitY=0.5;exitDx=0;exitDy=0;" edge="1" parent="WIyWlLk6GJQsqaUBKTNV-1" source="6CoXRJJS-WZdz4uYCl7o-40">
          <mxGeometry relative="1" as="geometry">
            <mxPoint x="550" y="570" as="sourcePoint" />
            <mxPoint x="700" y="540" as="targetPoint" />
          </mxGeometry>
        </mxCell>
        <mxCell id="10pZMpCAyaWx1mK4e7Oo-5" style="rounded=0;orthogonalLoop=1;jettySize=auto;html=1;endArrow=none;endFill=0;jumpStyle=arc;strokeColor=default;exitX=1;exitY=0.5;exitDx=0;exitDy=0;" edge="1" parent="WIyWlLk6GJQsqaUBKTNV-1" source="10pZMpCAyaWx1mK4e7Oo-2" target="6CoXRJJS-WZdz4uYCl7o-74">
          <mxGeometry relative="1" as="geometry">
            <mxPoint x="424" y="645" as="sourcePoint" />
            <mxPoint x="710" y="550" as="targetPoint" />
          </mxGeometry>
        </mxCell>
        <mxCell id="10pZMpCAyaWx1mK4e7Oo-6" style="rounded=0;orthogonalLoop=1;jettySize=auto;html=1;endArrow=none;endFill=0;jumpStyle=arc;strokeColor=default;exitX=1;exitY=0.5;exitDx=0;exitDy=0;" edge="1" parent="WIyWlLk6GJQsqaUBKTNV-1" source="6CoXRJJS-WZdz4uYCl7o-39" target="6CoXRJJS-WZdz4uYCl7o-74">
          <mxGeometry relative="1" as="geometry">
            <mxPoint x="424" y="725" as="sourcePoint" />
            <mxPoint x="710" y="559" as="targetPoint" />
          </mxGeometry>
        </mxCell>
        <mxCell id="10pZMpCAyaWx1mK4e7Oo-7" style="rounded=0;orthogonalLoop=1;jettySize=auto;html=1;endArrow=none;endFill=0;jumpStyle=arc;strokeColor=default;exitX=1;exitY=0.5;exitDx=0;exitDy=0;" edge="1" parent="WIyWlLk6GJQsqaUBKTNV-1" source="6CoXRJJS-WZdz4uYCl7o-23">
          <mxGeometry relative="1" as="geometry">
            <mxPoint x="424" y="570" as="sourcePoint" />
            <mxPoint x="710" y="551" as="targetPoint" />
          </mxGeometry>
        </mxCell>
        <mxCell id="10pZMpCAyaWx1mK4e7Oo-8" value="Edit lost item" style="ellipse;whiteSpace=wrap;html=1;rounded=0;" vertex="1" parent="WIyWlLk6GJQsqaUBKTNV-1">
          <mxGeometry x="304" y="870" width="130" height="50" as="geometry" />
        </mxCell>
        <mxCell id="10pZMpCAyaWx1mK4e7Oo-9" value="" style="rounded=0;orthogonalLoop=1;jettySize=auto;html=1;endArrow=none;endFill=0;jumpStyle=arc;strokeColor=default;entryX=0;entryY=0.5;entryDx=0;entryDy=0;" edge="1" parent="WIyWlLk6GJQsqaUBKTNV-1" source="6CoXRJJS-WZdz4uYCl7o-61" target="10pZMpCAyaWx1mK4e7Oo-8">
          <mxGeometry relative="1" as="geometry">
            <mxPoint x="90" y="1123" as="sourcePoint" />
            <mxPoint x="314" y="1025" as="targetPoint" />
          </mxGeometry>
        </mxCell>
        <mxCell id="10pZMpCAyaWx1mK4e7Oo-11" value="Edit complaint" style="ellipse;whiteSpace=wrap;html=1;rounded=0;" vertex="1" parent="WIyWlLk6GJQsqaUBKTNV-1">
          <mxGeometry x="320" y="1400" width="130" height="50" as="geometry" />
        </mxCell>
        <mxCell id="10pZMpCAyaWx1mK4e7Oo-12" value="" style="rounded=0;orthogonalLoop=1;jettySize=auto;html=1;endArrow=none;endFill=0;jumpStyle=arc;strokeColor=default;entryX=0;entryY=0.5;entryDx=0;entryDy=0;" edge="1" parent="WIyWlLk6GJQsqaUBKTNV-1" source="6CoXRJJS-WZdz4uYCl7o-82" target="10pZMpCAyaWx1mK4e7Oo-11">
          <mxGeometry relative="1" as="geometry">
            <mxPoint x="100" y="1257" as="sourcePoint" />
            <mxPoint x="330" y="1365" as="targetPoint" />
          </mxGeometry>
        </mxCell>
      </root>
    </mxGraphModel>
  </diagram>
</mxfile>
